# xmcd CD database file
#
# Track frame offsets:
#	151
#	14170
#	31149
#	45568
#	63081
#	76191
#	89131
#	104311
#	121300
#	130009
#	142569
#	155393
#	174832
#	191772
#
# Disc length: 2767 seconds
#
# Revision: 4
# Processed by: cddbd v1.5.2PL0 Copyright (c) Steve Scherf et al.
# Submitted via: CDex 1.70beta2
#
DISCID=a90acd0e
DTITLE=Slim Cessna's Auto Club - Slim Cessna's Auto Club
DYEAR=2001
DGENRE=Crossover
TTITLE0=Hold On
TTITLE1=Kristin and Billy
TTITLE2=Limon
TTITLE3=My Goodness Me
TTITLE4=Willow Garden
TTITLE5=Dear Amelia
TTITLE6=Jordan
TTITLE7=Fifteen Years
TTITLE8=That's Why I'm Unhappy
TTITLE9=Cryin' On My Pillow
TTITLE10=What'll I Do?
TTITLE11=Blindman
TTITLE12=Champagne Like a Lady
TTITLE13=Goodnight My Friend
EXTD=YEAR: 2001
EXTT0=
EXTT1=
EXTT2=
EXTT3=
EXTT4=
EXTT5=
EXTT6=
EXTT7=
EXTT8=
EXTT9=
EXTT10=
EXTT11=
EXTT12=
EXTT13=
PLAYORDER=
